<svg width="280" height="114" fill="none" xmlns="http://www.w3.org/2000/svg"><path d="M0-25c0-6.627 5.373-12 12-12h256c6.627 0 12 5.373 12 12v127c0 6.627-5.373 12-12 12h-61.874a99.997 99.997 0 01-31.435-5.069l-9.543-3.16a79.99 79.99 0 00-50.296 0l-9.543 3.16A99.998 99.998 0 0173.874 114H12c-6.627 0-12-5.373-12-12V-25z" fill="#303030" fill-opacity=".5"/><path d="M77.948 79.84c-.462 0-.86-.107-1.192-.32a2.017 2.017 0 01-.749-.886 3.101 3.101 0 01-.256-1.29c0-.48.086-.91.256-1.288.176-.383.428-.681.756-.894.332-.217.727-.325 1.184-.325.453 0 .843.108 1.171.325.328.213.578.508.749.887.17.379.256.813.256 1.303 0 .485-.085.914-.256 1.288-.171.375-.42.668-.749.88-.328.213-.718.32-1.17.32zm-.007-.555c.318 0 .596-.081.831-.243.236-.166.416-.397.54-.692.125-.296.188-.633.188-1.012s-.063-.716-.188-1.012a1.571 1.571 0 00-.54-.692 1.404 1.404 0 00-.831-.25c-.32 0-.596.085-.832.256a1.572 1.572 0 00-.54.693c-.125.296-.187.63-.187 1.005 0 .379.062.716.187 1.012.124.29.305.52.54.685.236.167.513.25.832.25zm5.185-4.344h.672l2.598 3.894h.028V74.94h.588v4.85h-.678l-2.592-3.839h-.028v3.839h-.588v-4.85zm9.947 4.31v.54h-2.861v-4.85h.603l-.007 4.31h2.265zm2.94-4.31h.603v4.85h-.603v-4.85zm3.825 0h.672l2.598 3.894h.028V74.94h.589v4.85h-.679l-2.592-3.839h-.027v3.839h-.59v-4.85zm7.689.54v1.594h2.099v.485h-2.099v1.69h2.383v.54h-2.986v-4.85h2.986v.541h-2.383zm9.165-.54h1.774c.434 0 .813.099 1.136.298.328.194.58.473.755.838.18.36.271.788.271 1.282s-.091.926-.271 1.295a1.945 1.945 0 01-.755.846 2.203 2.203 0 01-1.143.29h-1.767v-4.85zm1.684 4.295c.489 0 .882-.159 1.178-.478.295-.323.443-.79.443-1.4 0-.609-.148-1.073-.443-1.392-.291-.323-.684-.485-1.178-.485h-1.102v3.755h1.102zm6.648-1.378h-.866v1.933h-.596v-4.85h1.649c.393 0 .714.071.963.214a1.3 1.3 0 01.547.548c.111.221.167.455.167.7 0 .337-.102.64-.305.907-.199.268-.511.439-.936.513l1.282 1.968h-.658l-1.247-1.933zm-.866-.513h.977c.328 0 .605-.072.831-.215.227-.143.34-.386.34-.727 0-.338-.113-.576-.34-.714-.226-.139-.503-.208-.831-.208h-.977v1.864zm5.848-2.404h.603v4.85h-.603v-4.85zm3.355 0h.609l1.469 4.247h.042l1.469-4.247h.602l-1.676 4.85h-.832l-1.683-4.85zm7.008 0h.603v4.85h-.603v-4.85zm3.825 0h.672l2.598 3.894h.028V74.94h.589v4.85h-.679l-2.591-3.839h-.028v3.839h-.589v-4.85zm8.993 4.898c-.476 0-.871-.12-1.185-.36a2.214 2.214 0 01-.7-.936 3.263 3.263 0 01-.221-1.198c0-.425.076-.827.228-1.206.153-.383.39-.695.714-.935.323-.245.727-.367 1.212-.367.541 0 .977.147 1.31.443.337.291.57.658.7 1.102h-.631a1.377 1.377 0 00-.485-.735c-.231-.175-.529-.263-.894-.263-.485 0-.863.176-1.136.527-.273.35-.409.831-.409 1.44 0 .62.139 1.105.416 1.456.282.35.667.526 1.157.526.291 0 .54-.06.748-.18.213-.125.374-.293.485-.506.116-.212.176-.452.18-.72l.007-.194h-1.358v-.45h1.92v2.508h-.478v-.804h-.056c-.028.07-.09.169-.187.298-.097.125-.259.25-.485.374-.222.12-.506.18-.852.18zm10.429.007c-.374 0-.695-.076-.963-.229a1.588 1.588 0 01-.797-1.371v-.035h.659v.035c0 .161.037.323.111.485.078.161.2.297.367.408.166.107.378.16.637.16.305 0 .557-.079.755-.236a.769.769 0 00.298-.637.666.666 0 00-.221-.527 1.122 1.122 0 00-.555-.27l-.706-.132c-.813-.18-1.22-.607-1.22-1.281 0-.278.067-.52.201-.728.134-.208.319-.367.554-.478.241-.116.518-.173.832-.173.355 0 .66.071.914.215a1.463 1.463 0 01.769 1.267v.028h-.658v-.02a.956.956 0 00-.104-.423.891.891 0 00-.332-.381c-.153-.107-.356-.16-.61-.16-.291 0-.524.081-.7.243a.795.795 0 00-.256.603c0 .203.067.37.201.498.134.13.316.218.547.264l.638.124c.891.18 1.337.617 1.337 1.31 0 .282-.072.531-.215.748a1.416 1.416 0 01-.596.513c-.259.12-.554.18-.887.18zm6.793-.007c-.453 0-.843-.106-1.171-.319a2.113 2.113 0 01-.756-.893 3.115 3.115 0 01-.256-1.29c0-.48.086-.909.256-1.288.176-.379.428-.674.756-.887.328-.217.718-.325 1.171-.325.545 0 .995.154 1.351.464.355.305.593.718.713 1.24h-.589a1.581 1.581 0 00-.533-.845 1.427 1.427 0 00-.935-.319c-.504 0-.89.178-1.158.534-.267.35-.401.824-.401 1.42 0 .6.134 1.079.401 1.434.268.351.654.527 1.158.527.346 0 .644-.093.893-.277.25-.19.428-.442.534-.756h.589c-.13.48-.37.864-.721 1.15-.346.287-.78.43-1.302.43zm8.667-4.898v4.85h-.603v-2.197h-2.467v2.197h-.596v-4.85h.596v2.168h2.467v-2.168h.603zm5.18 4.898c-.462 0-.859-.106-1.192-.319a2.023 2.023 0 01-.748-.886 3.1 3.1 0 01-.256-1.29c0-.48.085-.91.256-1.288.176-.383.427-.681.755-.894.333-.217.728-.325 1.185-.325.453 0 .843.108 1.171.325.328.213.577.508.748.887.171.379.257.813.257 1.303 0 .485-.086.914-.257 1.288-.171.375-.42.668-.748.88-.328.213-.718.32-1.171.32zm-.007-.554c.319 0 .596-.081.832-.243.235-.166.415-.397.54-.692.125-.296.187-.633.187-1.012s-.062-.716-.187-1.012a1.577 1.577 0 00-.54-.692 1.407 1.407 0 00-.832-.25c-.318 0-.596.085-.831.256a1.572 1.572 0 00-.541.693c-.124.296-.187.63-.187 1.005 0 .379.063.716.187 1.012.125.29.305.52.541.685.235.167.513.25.831.25zm7.236.554c-.462 0-.86-.106-1.192-.319a2.016 2.016 0 01-.748-.886 3.1 3.1 0 01-.257-1.29c0-.48.086-.91.257-1.288a2.05 2.05 0 01.755-.894c.332-.217.727-.325 1.185-.325.452 0 .843.108 1.171.325.328.213.577.508.748.887.171.379.256.813.256 1.303 0 .485-.085.914-.256 1.288-.171.375-.42.668-.748.88-.328.213-.719.32-1.171.32zm-.007-.554c.318 0 .596-.081.831-.243.236-.166.416-.397.541-.692.124-.296.187-.633.187-1.012s-.063-.716-.187-1.012a1.571 1.571 0 00-.541-.692 1.403 1.403 0 00-.831-.25 1.38 1.38 0 00-.832.256 1.577 1.577 0 00-.54.693c-.125.296-.187.63-.187 1.005 0 .379.062.716.187 1.012.125.29.305.52.54.685.236.167.513.25.832.25zm8.046-.035v.54h-2.861v-4.85h.603l-.007 4.31h2.265z" fill="#fff"/><path fill-rule="evenodd" clip-rule="evenodd" d="M120.6 44.06c2.316 1.183 2.306 1.139.882 3.893-1.244 2.406-1.582 2.504-3.542 1.022-1.946-1.473-4.198-1.32-6.43.436-2.681 2.109-2.681 6.432 0 8.541 3.95 3.107 6.312 1.841 10.841-5.809 2.249-3.796 4.438-6.507 6.211-7.687 7.21-4.798 17.081.493 17.073 9.152-.005 6.34-4.611 10.873-11.054 10.879-3.314.002-7.676-1.737-7.676-3.06 0-.475 1.582-3.325 2.671-4.81.124-.17.628.231 1.118.89 1.599 2.146 5.082 2.295 7.382.318 2.769-2.383 2.802-5.876.077-8.22-4.019-3.457-6.728-2.011-11.447 6.11-3.916 6.739-6.924 9.026-11.78 8.952-6.134-.093-11.078-4.898-11.078-10.768 0-8.84 8.704-13.952 16.752-9.84z" fill="#fff"/><path d="M74.418 65.428c-3.012 0-5.089-.887-6.23-2.663-1.11-1.775-1.664-4.248-1.664-7.418V43.125h5.136v10.938c0 1.807.095 3.218.285 4.232.222.983.634 1.712 1.237 2.188.634.475 1.569.713 2.805.713.888 0 1.744-.254 2.568-.76a5.878 5.878 0 001.997-2.046 5.486 5.486 0 00.809-2.9V43.124h5.088v21.828h-4.184l-.571-3.186c-.793 1.236-1.791 2.155-2.996 2.758-1.173.602-2.6.903-4.28.903zm18.15-18.118h-3.131v-4.185h3.13v-8.893h5.184v8.893h3.935v4.185h-3.935v17.643h-5.183V47.31zm55.229-4.185h5.041l.047 3.995c.603-1.332 1.554-2.425 2.854-3.281 1.299-.856 2.821-1.285 4.565-1.285 2.251 0 3.979.476 5.183 1.427 1.205.92 2.014 2.22 2.426 3.9.412 1.68.618 3.867.618 6.562v10.51h-5.136V54.586c0-2.758-.27-4.74-.808-5.944-.539-1.237-1.649-1.855-3.329-1.855-.951 0-1.918.301-2.901.903-.983.571-1.807 1.411-2.473 2.52-.634 1.11-.951 2.41-.951 3.9v10.843h-5.136V43.125zM172.963 30h5.088v34.953h-5.088V30zm10.061 13.125h5.326v21.828h-5.326V43.125zm2.616-4.09c-.983 0-1.807-.332-2.473-.998-.666-.666-.999-1.49-.999-2.473 0-.888.333-1.649.999-2.283.666-.634 1.49-.95 2.473-.95.951 0 1.759.316 2.425.95.666.634.999 1.395.999 2.283 0 .983-.333 1.807-.999 2.473-.634.666-1.442.998-2.425.998zm7.206 4.09h5.041l.047 3.995c.603-1.332 1.554-2.425 2.854-3.281 1.299-.856 2.821-1.285 4.565-1.285 2.251 0 3.979.476 5.183 1.427 1.205.92 2.013 2.22 2.426 3.9.412 1.68.618 3.867.618 6.562v10.51h-5.136V54.586c0-2.758-.27-4.74-.809-5.944-.538-1.237-1.648-1.855-3.328-1.855-.951 0-1.918.301-2.901.903-.983.571-1.807 1.411-2.473 2.52-.634 1.11-.951 2.41-.951 3.9v10.843h-5.136V43.125zm-135.179 0v2.384a11.14 11.14 0 013.67 8.276 11.14 11.14 0 01-3.622 8.232v2.936h4.85V43.125h-4.898z" fill="#fff"/><path fill-rule="evenodd" clip-rule="evenodd" d="M57.715 62.017a11.139 11.139 0 003.621-8.232 11.14 11.14 0 00-4.064-8.618 11.122 11.122 0 00-7.104-2.55C44 42.617 39 47.617 39 53.785c0 6.168 5 11.168 11.168 11.168 2.91 0 5.56-1.113 7.547-2.936zm-7.547-2.108a6.125 6.125 0 100-12.249 6.125 6.125 0 000 12.25z" fill="#fff"/><path d="M228.859 65.673c-6.566 0-11.889-5.322-11.889-11.888s5.323-11.89 11.889-11.89c6.566 0 11.889 5.324 11.889 11.89 0 .865-.093 1.709-.268 2.522h-5.255c.309-.78.479-1.632.479-2.522a6.86 6.86 0 00-.239-1.802 6.849 6.849 0 00-13.211 0 6.86 6.86 0 00.24 4.324 6.846 6.846 0 0011.357 2.161h5.939c-1.818 4.237-6.028 7.205-10.931 7.205z" fill="#fff"/><path d="M235.225 56.306c.309-.78.479-1.63.479-2.521a6.86 6.86 0 00-.239-1.802h-13.211a6.86 6.86 0 00.24 4.324h12.731z" fill="#fff"/></svg>